<?xml version="1.0" encoding="UTF-8"?>
<svg id="Layer_1" xmlns="http://www.w3.org/2000/svg" version="1.1" viewBox="0 0 1080 1080">
  <!-- Generator: Adobe Illustrator 30.2.1, SVG Export Plug-In . SVG Version: 2.1.1 Build 1)  -->
  <defs>
    <style>
      .st0 {
        fill: #e5ecf7;
      }
    </style>
  </defs>
  <polygon class="st0" points="170.63 579.56 170.63 512.12 306.88 512.12 306.88 460.46 170.63 460.46 170.63 399.17 324.91 399.17 324.91 345.87 103.14 345.87 103.14 632.86 330.36 632.86 330.36 579.56 170.63 579.56"/>
  <path class="st0" d="M973.87,432.11c-7.22-17.3-17.22-32.43-30.02-45.38-12.81-12.94-27.84-22.99-45.12-30.12-17.29-7.13-36.24-10.7-56.88-10.7s-39.28,3.57-56.68,10.7c-17.4,7.13-32.57,17.18-45.5,30.12-12.93,12.95-22.93,28.14-30.02,45.58-7.08,17.44-10.63,36.46-10.63,57.07s3.54,39.64,10.63,57.07c7.09,17.44,17.03,32.64,29.83,45.58,12.8,12.95,27.97,22.99,45.5,30.12s36.61,10.7,57.24,10.7,39.22-3.57,56.5-10.7c17.27-7.13,32.31-17.11,45.12-29.93,12.81-12.81,22.81-28,30.02-45.58,7.21-17.57,10.82-36.66,10.82-57.27s-3.61-39.96-10.82-57.27h.01ZM915.77,528.85c-4.1,10.84-9.88,20.21-17.34,28.14s-16.1,14.01-25.92,18.23c-9.83,4.23-20.57,6.34-32.26,6.34s-22.5-2.11-32.44-6.34c-9.94-4.22-18.58-10.3-25.92-18.23-7.34-7.93-13.05-17.37-17.15-28.34-4.1-10.96-6.15-22.92-6.15-35.87s2.05-25.23,6.15-36.07c4.1-10.83,9.88-20.21,17.34-28.14,7.46-7.93,16.1-14,25.92-18.23,9.82-4.22,20.57-6.34,32.26-6.34s22.5,2.12,32.45,6.34c9.94,4.23,18.58,10.31,25.92,18.23,7.33,7.93,13.05,17.31,17.15,28.14,4.1,10.84,6.15,22.86,6.15,36.07s-2.05,25.24-6.15,36.07h-.01Z"/>
  <g>
    <path class="st0" d="M442.76,532.05h0l-20.94-53.7-45.15-115.76c-3.59,5.49-5.64,12.15-5.64,19.56-.02,71.81-.02,143.62,0,215.43,0,20.49,15.16,35.25,36.18,35.26,24.96.01,49.92,0,74.87,0l-39.32-100.8h0Z"/>
    <path class="st0" d="M547.71,632.85c26.63,0,53.25.02,79.88,0,.13,0,.26-.02.39-.02l9.49-.05c14.57-4.32,25.73-18.64,25.73-34.66.03-72.05.03-144.1,0-216.14,0-9-3.09-16.92-8.33-22.94l-107.17,273.83v-.02Z"/>
    <g>
      <path class="st0" d="M517.2,451.78c-1.12.03-2.08.91-2.08,2.09v2.76c0,1.23,1.02,2.15,2.2,2.12,1.13-.03,2.09-.93,2.08-2.18v-2.71c-.02-1.21-1.05-2.12-2.21-2.09h.01Z"/>
      <path class="st0" d="M596.39,345.64c-6.63-14.22-17.86-21.45-33.91-21.44-30.56.01-61.12-.07-91.68.03-15.11.05-25.89,7.09-32.43,20.3-.18.35-.36.63-.54.91l39.53,102.67h0l7.63,19.8h0l3.91,10.15h0l3.72,9.65h0l3.91,10.15h0l20.66,53.65,79.93-204.51c-.29-.55-.51-.96-.7-1.37h-.03ZM534.6,379.02c-5.06,3.3-10.06,6.69-15.22,9.81-.03.02-.07.02-.1.04v.03l.03,6.93,3.63.02c1.18,0,2.06.98,2.08,2.06s-.87,2.1-2.09,2.11l-3.62.02v6.97h3.63c1.18.01,2.05.99,2.08,2.04.03,1.1-.87,2.14-2.08,2.14h-3.63v2.61h-.08c.03.97.03,1.92.04,2.96h3.49c1.23,0,2.17.89,2.22,2.01s-.86,2.17-2.08,2.17l-3.62.02v6.97l3.63.02c1.18,0,2.06.98,2.08,2.06s-.87,2.1-2.09,2.11l-3.62.02v6.97h3.63c1.18.01,2.05.99,2.08,2.04.03,1.1-.87,2.14-2.08,2.14h-3.63v2.79l3.49.02c2.07.01,3.68,1.7,3.54,3.74l-1.23,18.05c-.13,1.9-1.62,3.33-3.53,3.33h-8.83c-1.91,0-3.4-1.45-3.52-3.29l-1.23-17.99c-.14-2.08,1.37-3.84,3.55-3.86l3.48-.02v-8.36l-3.63-.02c-1.23,0-2.13-1.06-2.09-2.17.05-1.13.99-2.01,2.22-2.01h3.49v-6.98h-3.62c-1.23-.02-2.12-1.07-2.09-2.15.04-1.16.99-2.05,2.22-2.05h3.49v-6.97l-3.62-.02c-1.22,0-2.11-1.05-2.09-2.11.03-1.2.98-2.07,2.22-2.07l3.53-.02v-5.54l-3.62-.02c-1.23,0-2.13-1.06-2.09-2.17.05-1.13.99-2.01,2.22-2.01h3.49v-6.98h-3.62c-1.23-.02-2.12-1.07-2.09-2.15.04-1.16.99-2.05,2.22-2.05h3.49v-1.33c-18.28-11.76-36.47-23.66-54.92-35.69,2.52-4.3,6.19-6.14,10.73-6.15,30.78-.05,61.57-.05,92.35,0,4.67,0,8.45,1.82,10.91,6.17-13.23,8.63-26.37,17.21-39.51,25.78v.03Z"/>
    </g>
  </g>
</svg>